<svg width="32" height="32" xmlns="http://www.w3.org/2000/svg"><defs><linearGradient x1="50%" y1="35.522%" x2="17.716%" y2="60.798%" id="a"><stop stop-color="#6B6D74" offset="0%"/><stop stop-color="#222" offset="100%"/></linearGradient><linearGradient x1="50%" y1="45.843%" x2="8.568%" y2="62.674%" id="b"><stop stop-color="#969696" offset="0%"/><stop stop-color="#767676" offset="100%"/></linearGradient><linearGradient x1="52.834%" y1="54.131%" x2="34.041%" y2="99.694%" id="c"><stop stop-color="#3794FA" offset="0%"/><stop stop-color="#83BEFF" offset="99.96%"/></linearGradient></defs><g fill="none" fill-rule="evenodd"><path d="M19.45 3.496a4.449 4.449 0 0 1 2.184-.57 4.49 4.49 0 0 1 4.458 4.023A3.87 3.87 0 0 1 31 10.683a3.87 3.87 0 0 1-3.863 3.878 3.84 3.84 0 0 1-1.419-.27c-.608.44-1.414.709-2.298.709-.978 0-1.86-.328-2.485-.855-1.33.53-3.123.855-5.095.855-1.951 0-3.727-.318-5.053-.838a3.11 3.11 0 0 1-1.653.472A3.14 3.14 0 0 1 6 11.488c0-.958.427-1.817 1.1-2.394a1.426 1.426 0 0 1 1.031-2.05A6.06 6.06 0 0 1 8.041 6c0-3.314 2.676-6 5.976-6a5.976 5.976 0 0 1 5.433 3.496Z" fill="url(#a)" fill-rule="nonzero" transform="translate(-1 4.5)"/><path d="M16.45 6.496a4.449 4.449 0 0 1 2.184-.57 4.49 4.49 0 0 1 4.458 4.023A3.87 3.87 0 0 1 28 13.683a3.87 3.87 0 0 1-3.863 3.878 3.84 3.84 0 0 1-1.419-.27c-.608.44-1.414.709-2.298.709-.978 0-1.86-.328-2.485-.855-1.33.53-3.123.855-5.095.855-1.951 0-3.727-.318-5.053-.838a3.11 3.11 0 0 1-1.653.472A3.14 3.14 0 0 1 3 14.488c0-.958.427-1.817 1.1-2.394a1.426 1.426 0 0 1 1.031-2.05A6.06 6.06 0 0 1 5.041 9c0-3.314 2.676-6 5.976-6a5.976 5.976 0 0 1 5.433 3.496Z" fill="url(#b)" fill-rule="nonzero" transform="translate(-1 4.5)"/><g transform="translate(-.5 17.5)" fill="url(#c)"><path d="M4.882 10.106c-.967-.445-1.446-1.473-1.069-2.3.376-.823 4.026-5.081 4.327-4.972.3.11-.447 5.76-.824 6.585-.375.827-1.465 1.136-2.434.687ZM13.107 9.943c-.967-.446-1.445-1.473-1.068-2.3.375-.823 4.026-5.082 4.326-4.972.3.109-.447 5.76-.824 6.584-.375.827-1.465 1.137-2.434.688ZM21.067 10.106c-.967-.445-1.446-1.473-1.069-2.3.376-.823 4.026-5.081 4.327-4.972.3.11-.447 5.76-.824 6.585-.375.827-1.465 1.136-2.434.687Z"/></g></g></svg>
