<?xml version="1.0" encoding="UTF-8"?>
<svg width="181px" height="22px" viewBox="0 0 181 22" version="1.1" xmlns="http://www.w3.org/2000/svg" xmlns:xlink="http://www.w3.org/1999/xlink">
    <title>Meteored</title>
    <g id="Logotipos" stroke="none" stroke-width="1" fill="none" fill-rule="evenodd">
        <g transform="translate(-1192.000000, -188.000000)" id="Meteored">
            <g transform="translate(1192.000000, 188.000000)">
                <polygon id="Clip-2" points="0 0 180.9 0 180.9 21.6 0 21.6"></polygon>
                <path d="M129.651747,7.8624 C129.651747,6.23031193 128.463526,5.40039633 126.532371,5.40039633 L122.758957,5.40039633 L122.758957,10.3846459 L126.561739,10.3846459 C128.523056,10.3846459 129.651747,9.43503853 129.651747,7.92184954 L129.651747,7.8624 Z M131.166986,13.9444844 L136.128619,21.1838532 L129.473157,21.1838532 L125.28462,14.8940917 L122.758957,14.8940917 L122.758957,21.1838532 L116.995652,21.1838532 L116.995652,0.415354128 L126.829227,0.415354128 C130.008133,0.415354128 132.206778,1.24606239 133.60375,2.67047339 C134.821339,3.85708624 135.445214,5.45905321 135.445214,7.50649541 L135.445214,7.56594495 C135.445214,10.7397578 133.751385,12.8474422 131.166986,13.9444844 L131.166986,13.9444844 Z M174.987473,10.7698789 C174.987473,7.44704587 172.69993,5.51850275 169.254329,5.51850275 L166.907257,5.51850275 L166.907257,16.0814972 L169.254329,16.0814972 C172.69993,16.0814972 174.987473,14.1822826 174.987473,10.8293284 L174.987473,10.7698789 Z M180.9,10.6811009 L180.9,10.7397578 C180.9,16.7338569 176.53208,21.1838532 169.046371,21.1838532 L161.143158,21.1838532 L161.143158,0.415354128 L169.164637,0.415354128 C176.592404,0.415354128 180.9,4.6877945 180.9,10.6811009 L180.9,10.6811009 Z M107.175571,9.47150092 L108.059791,8.22781651 L106.737429,7.4644844 L106.881095,5.94653945 L105.353157,5.94495413 L104.716582,4.55859083 L103.393426,5.32033761 L102.148851,4.43731376 L101.383691,5.75788624 L99.8636896,5.61520734 L99.8628959,6.48 C100.962218,6.7994422 101.878981,7.56515229 102.39094,8.60036697 C103.271191,8.61067156 104.084769,9.01492844 104.662608,9.7370422 C105.680969,9.82819817 106.572332,10.363244 107.137471,11.1598679 L107.938349,10.7928661 L107.870882,10.676345 L107.175571,9.47150092 Z M106.327862,13.1328 C106.327862,13.0630459 106.314369,12.9980477 106.307225,12.9314642 C106.204833,11.9303339 105.371412,11.1717578 104.35067,11.1717578 C104.275265,11.1717578 104.19986,11.1765138 104.124456,11.1860257 L103.846649,11.1860257 L103.72362,10.930789 C103.679171,10.837255 103.617259,10.7571963 103.556936,10.676345 C103.273572,10.2911119 102.840193,10.0477651 102.354428,10.0477651 C102.175838,10.0485578 101.998041,10.0810569 101.830563,10.1444697 L101.409884,10.3006239 L101.30908,9.85990459 C101.031273,8.63286606 99.9510004,7.76411009 98.7056312,7.76411009 L98.6969001,7.76411009 C98.6222891,7.76411009 98.5492655,7.76886606 98.4770357,7.77441468 C97.1634053,7.87746055 96.2323549,8.90157798 96.1656812,10.2697101 L96.1815559,10.6731743 L96.1386942,10.676345 L95.7457957,10.7032954 C94.7829959,10.9720073 94.0980032,11.8780183 94.0980032,12.8862826 C94.0980032,14.0736881 95.1893879,15.0343927 96.3625273,15.1057321 L104.36337,15.1057321 C105.423799,15.0589651 106.327862,14.2044771 106.327862,13.1328 L106.327862,13.1328 Z M112.121329,10.7151853 C112.116567,12.7911633 111.526029,14.823545 110.413213,16.5705688 L110.421944,16.6022752 L111.580796,20.565578 L107.736741,19.4724991 C106.827915,20.1446752 105.814316,20.6805138 104.718963,21.044345 C104.707057,21.0483083 104.695151,21.0530642 104.683245,21.0570275 C104.505448,21.1156844 104.324477,21.163244 104.143505,21.212389 C103.997458,21.252022 103.851411,21.2924477 103.702983,21.3257394 C103.557729,21.3590312 103.412476,21.387567 103.266429,21.4145174 C103.060852,21.4517725 102.853687,21.4834789 102.644141,21.5096367 C102.533812,21.5231119 102.424277,21.5389651 102.313948,21.5492697 C101.983754,21.5793908 101.651179,21.5992073 101.313842,21.5992073 L101.310667,21.6 C101.288443,21.6 101.265425,21.5960367 101.242406,21.5960367 C95.3020982,21.5587817 90.4968303,16.7409908 90.4968303,10.8 C90.4968303,10.7793908 90.5000053,10.7595743 90.5000053,10.7381725 C90.5000053,10.7175633 90.4968303,10.6977468 90.4968303,10.676345 L90.5031802,10.676345 C90.5706476,4.76943853 95.3806779,0 101.311461,0 C107.242244,0 112.052275,4.76943853 112.119742,10.6755523 C112.119742,10.6890275 112.121329,10.7017101 112.121329,10.7151853 L112.121329,10.7151853 Z M145.545484,12.9948771 L155.529075,12.9948771 L155.529075,8.45610275 L145.545484,8.45610275 L145.545484,5.31082569 L156.568073,5.31082569 L156.568073,0.415354128 L139.841709,0.415354128 L139.841709,21.1838532 L156.717295,21.1838532 L156.717295,16.2883817 L145.545484,16.2883817 L145.545484,12.9948771 Z M11.0519574,8.45610275 L6.09111755,0.415354128 L0,0.415354128 L0,21.1838532 L5.64583257,21.1838532 L5.64583257,9.31613945 L10.9336909,17.3862165 L11.0519574,17.3862165 L16.3699776,9.25668991 L16.3699776,21.1838532 L22.1039147,21.1838532 L22.1039147,0.415354128 L16.0135909,0.415354128 L11.0519574,8.45610275 Z M47.4168975,5.45905321 L53.6548559,5.45905321 L53.6548559,21.1838532 L59.4189549,21.1838532 L59.4189549,5.45905321 L65.657707,5.45905321 L65.657707,0.415354128 L47.4168975,0.415354128 L47.4168975,5.45905321 Z M75.3722219,12.9948771 L85.3550191,12.9948771 L85.3550191,8.45610275 L75.3722219,8.45610275 L75.3722219,5.31082569 L86.3948111,5.31082569 L86.3948111,0.415354128 L69.6684468,0.415354128 L69.6684468,21.1838532 L86.5432394,21.1838532 L86.5432394,16.2883817 L75.3722219,16.2883817 L75.3722219,12.9948771 Z M32.9772818,16.2883817 L44.1482993,16.2883817 L44.1482993,21.1838532 L27.2735066,21.1838532 L27.2735066,0.415354128 L43.999871,0.415354128 L43.999871,5.31082569 L32.9772818,5.31082569 L32.9772818,8.45610275 L42.960079,8.45610275 L42.960079,12.9948771 L32.9772818,12.9948771 L32.9772818,16.2883817 Z" id="Fill-1" fill="#009EE2"></path>
            </g>
        </g>
    </g>
</svg>