<svg xmlns="http://www.w3.org/2000/svg" width="200" height="23"><g fill="#FFF" fill-rule="evenodd"><path d="M143.3 8.2c0-1.8-1.3-2.7-3.4-2.7h-4.2V11h4.2c2.2 0 3.4-1 3.4-2.7zm7.2 14.8h-7.4l-4.6-7h-2.8v7h-6.4V0h11c3.4 0 5.9 1 7.4 2.5 1.4 1.3 2 3 2 5.4 0 3.5-1.8 5.9-4.7 7l5.5 8.1zm43-11.5c0-3.7-2.6-5.8-6.4-5.8h-2.6v11.6h2.6c3.8 0 6.4-2 6.4-5.8zm6.5 0c0 6.6-4.8 11.5-13.1 11.5h-8.7V0h8.8c8.2 0 13 4.7 13 11.4zm-39 2.4h11V9h-11V5.4H173V0h-18.5v23h18.7v-5.4h-12.4v-3.7zM12.1 9L6.7 0H0v23h6.2V9.9l6 8.9 5.9-9V23h6.3V0h-6.7l-5.5 8.9zm40.2-3.3h7V23h6.3V5.6h6.9V0H52.4v5.6zm31 8.3h11V9h-11V5.4h12.1V0H77v23h18.7v-5.4H83.3v-3.7zm-47 3.7h12.4V23H30.2V0h18.4v5.4H36.5V9h11v5h-11v3.7z"/><path d="M118.4 20.4l3.9 1-1.2-4a15 15 0 0 1-2.7 3z"/><path d="M111.5 23a11.5 11.5 0 1 1 0-23 11.5 11.5 0 0 1 0 23zm7-11.6l-.7-1.4 1-1.3-1.5-.8.2-1.6h-1.7l-.6-1.5-1.5.8-1.3-1-.8 1.5-1.6-.2v1c1.2.3 2.1 1 2.7 2.1 1 0 1.8.5 2.4 1.2 1 .1 2 .7 2.6 1.5l.9-.3zm-3.7 4.5c1.1 0 2-1 2-2 0-1.8-1-2.1-2-2.1h-.6l-.3-.6c-.3-.4-.7-.6-1.3-.6-.3 0-.6 0-1 .2v-.4a2.8 2.8 0 0 0-2.9-2.2h-.2a2.7 2.7 0 0 0-2.5 2.6v.4a1 1 0 0 0-.4 0c-1 .3-1.8 1.3-1.8 2.4 0 1.2 1.2 2.2 2.4 2.3h8.6z"/></g></svg>